<svg width="61" height="61" viewBox="0 0 61 61" fill="none" xmlns="http://www.w3.org/2000/svg">
<rect x="0.722656" y="0.833496" width="58.8889" height="58.8889" rx="19.7222" fill="#F8F7FC" stroke="#F0F0F0"/>
<path fill-rule="evenodd" clip-rule="evenodd" d="M22.7793 27.3003C22.7793 23.5751 25.7992 20.5552 29.5244 20.5552C33.2496 20.5552 36.2695 23.5751 36.2695 27.3003C36.2695 31.0255 33.2496 34.0454 29.5244 34.0454C25.7992 34.0454 22.7793 31.0255 22.7793 27.3003Z" fill="#655BD5"/>
<path d="M24.6504 33.474C24.3056 33.2011 23.7662 33.3507 23.6596 33.7772L22.9597 36.577C22.2419 39.4479 25.3057 41.7852 27.8849 40.3344L28.9782 39.7194C29.3204 39.5269 29.7383 39.5269 30.0805 39.7194L31.1738 40.3344C33.753 41.7852 36.8168 39.4479 36.0991 36.577L35.3992 33.7772C35.2925 33.3507 34.7531 33.2011 34.4083 33.474C33.0672 34.5351 31.3723 35.1686 29.5294 35.1686C27.6865 35.1686 25.9915 34.5351 24.6504 33.474Z" fill="#655BD5"/>
</svg>
