<svg width="25" height="25" viewBox="0 0 25 25" fill="none" xmlns="http://www.w3.org/2000/svg">
  <path fill-rule="evenodd" clip-rule="evenodd" d="M5 9.745a6.745 6.745 0 1 1 13.49 0 6.745 6.745 0 0 1-13.49 0Z" fill="currentColor"/>
  <path d="M6.871 15.919c-.345-.273-.884-.123-.99.303l-.7 2.8c-.718 2.87 2.345 5.208 4.925 3.757l1.093-.615c.342-.192.76-.192 1.102 0l1.094.615c2.579 1.451 5.643-.886 4.925-3.757l-.7-2.8c-.107-.427-.646-.576-.991-.303a7.836 7.836 0 0 1-4.879 1.694 7.836 7.836 0 0 1-4.879-1.694Z" fill="currentColor"/>
</svg>
