<svg width="61" height="61" viewBox="0 0 61 61" fill="none" xmlns="http://www.w3.org/2000/svg">
<rect x="0.722656" y="0.833496" width="58.8889" height="58.8889" rx="19.7222" fill="#F8F7FC" stroke="#F0F0F0"/>
<path fill-rule="evenodd" clip-rule="evenodd" d="M22.7923 20.7693C23.5231 20.6069 24.3881 20.5552 25.3787 20.5552H34.1794C35.1701 20.5552 36.0351 20.6069 36.7658 20.7693C37.5081 20.9343 38.1722 21.2265 38.6955 21.7498C39.2188 22.2732 39.5111 22.9373 39.676 23.6795C39.8384 24.4103 39.8902 25.2753 39.8902 26.2659V31.0222C39.8902 32.0128 39.8384 32.8779 39.676 33.6086C39.5111 34.3508 39.2188 35.015 38.6955 35.5383C38.1722 36.0616 37.5081 36.3538 36.7658 36.5188C36.0351 36.6812 35.1701 36.733 34.1794 36.733H31.8013L33.6213 39.1596C33.9564 39.6064 33.8658 40.2401 33.4191 40.5752C32.9723 40.9102 32.3386 40.8197 32.0035 40.373L29.7791 37.407L27.5546 40.373C27.2196 40.8197 26.5858 40.9102 26.1391 40.5752C25.6923 40.2401 25.6018 39.6064 25.9369 39.1596L27.7569 36.733H25.3787C24.3881 36.733 23.5231 36.6812 22.7923 36.5188C22.0501 36.3538 21.386 36.0616 20.8626 35.5383C20.3393 35.015 20.0471 34.3508 19.8821 33.6086C19.7197 32.8779 19.668 32.0128 19.668 31.0222V26.2659C19.668 25.2753 19.7197 24.4103 19.8821 23.6795C20.0471 22.9373 20.3393 22.2732 20.8626 21.7498C21.386 21.2265 22.0501 20.9343 22.7923 20.7693ZM30.7902 25.6107C30.7902 25.0523 30.3375 24.5996 29.7791 24.5996C29.2207 24.5996 28.768 25.0523 28.768 25.6107L28.768 31.6774C28.768 32.2358 29.2207 32.6885 29.7791 32.6885C30.3375 32.6885 30.7902 32.2358 30.7902 31.6774L30.7902 25.6107ZM33.8235 25.6107C34.3819 25.6107 34.8346 26.0634 34.8346 26.6218L34.8346 31.6774C34.8346 32.2358 34.3819 32.6885 33.8235 32.6885C33.2651 32.6885 32.8124 32.2358 32.8124 31.6774L32.8124 26.6218C32.8124 26.0634 33.2651 25.6107 33.8235 25.6107ZM26.7457 27.633C26.7457 27.0745 26.2931 26.6218 25.7346 26.6218C25.1762 26.6218 24.7235 27.0745 24.7235 27.633L24.7235 31.6774C24.7235 32.2358 25.1762 32.6885 25.7346 32.6885C26.2931 32.6885 26.7457 32.2358 26.7457 31.6774L26.7457 27.633Z" fill="#655BD5"/>
</svg>
