<svg width="61" height="61" viewBox="0 0 61 61" fill="none" xmlns="http://www.w3.org/2000/svg">
<rect x="0.722656" y="0.833496" width="58.8889" height="58.8889" rx="19.7222" fill="#F8F7FC" stroke="#F0F0F0"/>
<path fill-rule="evenodd" clip-rule="evenodd" d="M23.7109 26.6214C23.7109 23.2708 26.4271 20.5547 29.7776 20.5547C33.1281 20.5547 35.8443 23.2708 35.8443 26.6214C35.8443 29.9719 33.1281 32.688 29.7776 32.688C26.4271 32.688 23.7109 29.9719 23.7109 26.6214Z" fill="#655BD5"/>
<path fill-rule="evenodd" clip-rule="evenodd" d="M23.0772 35.3307C24.7279 34.5429 26.9389 34.2886 29.7791 34.2886C32.6193 34.2886 34.8303 34.5429 36.4809 35.3307C38.2231 36.1622 39.2801 37.5566 39.8445 39.572C39.94 39.9131 39.8839 40.2842 39.6934 40.5719C39.5028 40.8595 39.2005 41.0293 38.8791 41.0293H20.6791C20.3576 41.0293 20.0554 40.8595 19.8648 40.5719C19.6742 40.2842 19.6181 39.9131 19.7136 39.572C20.2781 37.5566 21.335 36.1622 23.0772 35.3307Z" fill="#655BD5"/>
<path d="M36.7773 19.2859L39.3972 21.9058L44.637 16.666" stroke="#FAFAFA" stroke-width="1.55556" stroke-linecap="round" stroke-linejoin="round"/>
</svg>
