<svg width="24" height="24" viewBox="0 0 24 24" fill="none" xmlns="http://www.w3.org/2000/svg">
<circle cx="12" cy="12" r="12" fill="white"/>
<g clip-path="url(#clip0_552_2543)">
<path fill-rule="evenodd" clip-rule="evenodd" d="M8.52902 12.5703C8.43356 12.5626 8.33705 12.5587 8.23964 12.5587C6.2649 12.5587 4.66406 14.1595 4.66406 16.1343C4.66406 18.109 6.2649 19.7099 8.23964 19.7099C10.2144 19.7099 11.8152 18.109 11.8152 16.1343C11.8152 15.9827 11.8058 15.8333 11.7875 15.6867C10.0966 15.5513 8.73746 14.2395 8.52902 12.5703Z" fill="#5D00F5"/>
<path fill-rule="evenodd" clip-rule="evenodd" d="M11.8152 8.24256C11.8152 6.26782 10.2144 4.66698 8.23964 4.66698C6.2649 4.66698 4.66406 6.26782 4.66406 8.24256C4.66406 10.2173 6.2649 11.8181 8.23964 11.8181C8.33108 11.8181 8.42171 11.8147 8.51144 11.808C8.64359 10.0499 10.047 8.64651 11.8051 8.51436C11.8118 8.42466 11.8152 8.334 11.8152 8.24256Z" fill="#EB236B"/>
<path fill-rule="evenodd" clip-rule="evenodd" d="M15.6817 11.7904C15.8283 11.8087 15.9777 11.8181 16.1293 11.8181C18.104 11.8181 19.7049 10.2173 19.7049 8.24256C19.7049 6.26782 18.104 4.66698 16.1293 4.66698C14.1545 4.66698 12.5537 6.26782 12.5537 8.24256C12.5537 8.33997 12.5576 8.43648 12.5653 8.53194C14.2345 8.74041 15.5463 10.0995 15.6817 11.7904Z" fill="#4BD0A0"/>
<path fill-rule="evenodd" clip-rule="evenodd" d="M12.5838 15.6682C12.5639 15.8207 12.5537 15.9763 12.5537 16.1343C12.5537 18.109 14.1545 19.7099 16.1293 19.7099C18.104 19.7099 19.7049 18.109 19.7049 16.1343C19.7049 14.1595 18.104 12.5587 16.1293 12.5587C15.9713 12.5587 15.8157 12.569 15.6631 12.5888C15.4546 14.1907 14.1857 15.4596 12.5838 15.6682Z" fill="#0066FF"/>
</g>
<defs>
<clipPath id="clip0_552_2543">
<rect width="15" height="15" fill="white" transform="translate(4.66406 4.66698)"/>
</clipPath>
</defs>
</svg>
