<svg width="119" height="39" fill="none" xmlns="http://www.w3.org/2000/svg">
<path fill="currentColor" d="M15.008 38.957v-7.004h3.002v7.004z"/>
<mask id="a" style="mask-type:alpha" maskUnits="userSpaceOnUse" x="0" y="0" width="34" height="33">
<path transform="rotate(-26.999 0 11.118)" fill="currentColor" d="M0 11.118h12.506V34.63H0z"/>
<path transform="rotate(-108.7 11.13 19.385)" fill="currentColor" d="M11.131 19.385h12.506v23.512H11.131z"/>
</mask>
<g mask="url(#a)">
<circle cx="16.509" cy="16.446" r="9.255" stroke="currentColor" stroke-width="2.501"/>
</g>
<path d="M43.76 28.54V14.56h8.955v2.122h-6.423v3.796H52.1V22.6h-5.81v5.938H43.76Zm11.153 0V18.053h2.471V28.54h-2.47Zm1.243-11.974c-.392 0-.729-.13-1.01-.389a1.254 1.254 0 0 1-.424-.949c0-.373.141-.689.423-.948a1.428 1.428 0 0 1 1.01-.396c.396 0 .733.132 1.01.396.283.259.424.575.424.948 0 .37-.141.685-.423.95-.278.259-.615.388-1.01.388Zm6.24 5.83v6.143h-2.47V18.054h2.361v1.782h.123a2.997 2.997 0 0 1 1.154-1.4c.532-.345 1.19-.518 1.972-.518.724 0 1.354.155 1.891.464.542.31.96.758 1.256 1.345.3.587.448 1.3.444 2.136v6.676h-2.471v-6.293c0-.701-.182-1.25-.546-1.645-.36-.396-.858-.594-1.495-.594-.433 0-.817.095-1.154.286a1.988 1.988 0 0 0-.785.813c-.186.355-.28.785-.28 1.29Zm13.134 6.328c-.824 0-1.561-.212-2.212-.635-.65-.423-1.165-1.038-1.543-1.843-.377-.806-.566-1.784-.566-2.935 0-1.166.19-2.148.573-2.95.387-.805.908-1.412 1.563-1.822a4.017 4.017 0 0 1 2.192-.621c.614 0 1.119.105 1.515.314.396.205.71.453.942.744.232.287.412.557.54.812h.101V14.56h2.478v13.98h-2.43v-1.652h-.15a4.222 4.222 0 0 1-.553.813c-.241.282-.56.523-.955.723-.396.2-.895.3-1.495.3Zm.69-2.028c.522 0 .968-.14 1.337-.423.369-.287.648-.685.84-1.195.19-.51.286-1.103.286-1.781 0-.678-.095-1.268-.286-1.768-.187-.5-.465-.89-.833-1.167-.364-.278-.813-.417-1.345-.417-.55 0-1.01.144-1.379.43-.368.287-.646.683-.833 1.188-.186.505-.28 1.083-.28 1.734 0 .655.094 1.24.28 1.754.192.51.471.913.84 1.208.373.292.83.437 1.372.437Zm7.636 1.843V14.56h9.092v2.123h-6.56v3.796h6.09V22.6h-6.09v3.815h6.615v2.123h-9.147Zm15.457.185c-.823 0-1.56-.212-2.211-.635-.651-.423-1.165-1.038-1.543-1.843-.378-.806-.566-1.784-.566-2.935 0-1.166.19-2.148.573-2.95.387-.805.908-1.412 1.563-1.822a4.017 4.017 0 0 1 2.191-.621c.615 0 1.12.105 1.516.314.396.205.71.453.942.744.232.287.411.557.539.812h.102V14.56h2.478v13.98h-2.43v-1.652h-.15a4.26 4.26 0 0 1-.553.813c-.241.282-.56.523-.956.723-.396.2-.894.3-1.495.3Zm.69-2.028c.523 0 .969-.14 1.338-.423.368-.287.648-.685.839-1.195.192-.51.287-1.103.287-1.781 0-.678-.095-1.268-.287-1.768-.186-.5-.464-.89-.832-1.167-.364-.278-.813-.417-1.345-.417-.55 0-1.01.144-1.379.43-.369.287-.646.683-.833 1.188-.186.505-.28 1.083-.28 1.734 0 .655.094 1.24.28 1.754.191.51.471.913.84 1.208.373.292.83.437 1.372.437Zm14.21-2.566v-6.076h2.471V28.54h-2.396v-1.863h-.109a3.158 3.158 0 0 1-1.167 1.44c-.537.373-1.199.56-1.987.56-.687 0-1.294-.153-1.822-.457-.524-.31-.933-.758-1.229-1.345-.296-.592-.444-1.306-.444-2.144v-6.676h2.471v6.294c0 .665.182 1.192.546 1.584.365.391.842.587 1.434.587.364 0 .717-.089 1.058-.266.341-.178.621-.442.84-.792.223-.355.334-.799.334-1.331Z" fill="currentColor"/></svg>
