<svg width="25" height="25" viewBox="0 0 25 25" fill="none" xmlns="http://www.w3.org/2000/svg">
  <path fill-rule="evenodd" clip-rule="evenodd" d="M5.124 3.214C5.855 3.052 6.72 3 7.711 3h8.8c.991 0 1.856.052 2.587.214.742.165 1.406.457 1.93.98.523.524.815 1.188.98 1.93.163.731.214 1.596.214 2.587v4.756c0 .99-.052 1.856-.214 2.586-.165.743-.457 1.407-.98 1.93-.524.523-1.188.816-1.93.98-.73.163-1.596.215-2.586.215h-2.379l1.82 2.426a1.011 1.011 0 0 1-1.617 1.214l-2.225-2.966-2.224 2.966a1.011 1.011 0 1 1-1.618-1.214l1.82-2.426H7.71c-.99 0-1.856-.052-2.587-.214-.742-.165-1.406-.458-1.93-.98-.523-.524-.815-1.188-.98-1.93C2.052 15.322 2 14.457 2 13.466V8.711c0-.99.052-1.856.214-2.587.165-.742.457-1.406.98-1.93.524-.523 1.188-.815 1.93-.98Zm7.998 4.842a1.011 1.011 0 1 0-2.022 0v6.066a1.011 1.011 0 0 0 2.022 0V8.056Zm3.034 0c.558 0 1.01.452 1.01 1.01v5.056a1.011 1.011 0 0 1-2.022 0V9.067c0-.559.453-1.011 1.012-1.011Zm-7.078 2.022a1.011 1.011 0 1 0-2.022 0v4.044a1.011 1.011 0 0 0 2.022 0v-4.044Z" fill="currentColor"/>
</svg>
