<svg width="46" height="46" viewBox="0 0 46 46" fill="none" xmlns="http://www.w3.org/2000/svg">
<ellipse cx="23.1956" cy="23" rx="22.6331" ry="22.6744" fill="#678CF8"/>
<path fill-rule="evenodd" clip-rule="evenodd" d="M16.9381 14.1223C17.5924 13.9767 18.3669 13.9302 19.2539 13.9302H27.1339C28.0208 13.9302 28.7954 13.9767 29.4497 14.1223C30.1142 14.2703 30.7089 14.5324 31.1775 15.0018C31.646 15.4713 31.9077 16.067 32.0554 16.7328C32.2008 17.3883 32.2471 18.1642 32.2471 19.0528V23.3192C32.2471 24.2078 32.2008 24.9838 32.0554 25.6393C31.9077 26.305 31.646 26.9008 31.1775 27.3702C30.7089 27.8396 30.1142 28.1018 29.4497 28.2497C28.7954 28.3954 28.0208 28.4418 27.1339 28.4418H25.0045L26.6341 30.6186C26.9341 31.0193 26.853 31.5878 26.4531 31.8884C26.0531 32.1889 25.4856 32.1077 25.1856 31.707L23.1939 29.0465L21.2022 31.707C20.9022 32.1077 20.3347 32.1889 19.9347 31.8884C19.5347 31.5878 19.4536 31.0193 19.7536 30.6186L21.3832 28.4418H19.2539C18.3669 28.4418 17.5924 28.3954 16.9381 28.2497C16.2735 28.1018 15.6789 27.8396 15.2103 27.3702C14.7417 26.9008 14.4801 26.305 14.3324 25.6393C14.187 24.9838 14.1406 24.2078 14.1406 23.3192V19.0528C14.1406 18.1642 14.187 17.3883 14.3324 16.7328C14.4801 16.067 14.7417 15.4713 15.2103 15.0018C15.6789 14.5324 16.2735 14.2703 16.9381 14.1223ZM24.0992 18.4651C24.0992 17.9642 23.6939 17.5581 23.1939 17.5581C22.6939 17.5581 22.2886 17.9642 22.2886 18.4651V23.907C22.2886 24.4079 22.6939 24.8139 23.1939 24.8139C23.6939 24.8139 24.0992 24.4079 24.0992 23.907L24.0992 18.4651ZM26.8152 18.4651C27.3152 18.4651 27.7205 18.8712 27.7205 19.3721L27.7205 23.907C27.7205 24.4079 27.3152 24.8139 26.8152 24.8139C26.3152 24.8139 25.9099 24.4079 25.9099 23.907V19.3721C25.9099 18.8712 26.3152 18.4651 26.8152 18.4651ZM20.4779 20.2791C20.4779 19.7781 20.0726 19.3721 19.5726 19.3721C19.0726 19.3721 18.6673 19.7781 18.6673 20.2791L18.6673 23.907C18.6673 24.4079 19.0726 24.8139 19.5726 24.8139C20.0726 24.8139 20.4779 24.4079 20.4779 23.907L20.4779 20.2791Z" fill="#FAFAFA"/>
</svg>
